<?xml version="1.0" encoding="utf-8"?>
<!-- Generator: Adobe Illustrator 24.0.0, SVG Export Plug-In . SVG Version: 6.00 Build 0)  -->
<svg version="1.1" xmlns="http://www.w3.org/2000/svg" xmlns:xlink="http://www.w3.org/1999/xlink" x="0px" y="0px"
	 viewBox="0 0 420 420" style="enable-background:new 0 0 420 420;" xml:space="preserve">
<style type="text/css">
	.st0{display:none;}
	.st1{display:inline;fill:url(#SVGID_1_);}
	.st2{fill:none;stroke:#000000;stroke-width:3;stroke-linecap:round;stroke-linejoin:round;stroke-miterlimit:10;}
	.st3{fill:url(#SVGID_2_);}
	.st4{fill:url(#SVGID_3_);}
	.st5{fill:none;stroke:#7CB43D;stroke-width:3;stroke-linecap:round;stroke-miterlimit:10;}
</style>
<g id="Layer_6" class="st0">
	<linearGradient id="SVGID_1_" gradientUnits="userSpaceOnUse" x1="-230.3208" y1="210" x2="650.3208" y2="210">
		<stop  offset="1.685078e-03" style="stop-color:#00DA9D"/>
		<stop  offset="1" style="stop-color:#55DF60"/>
	</linearGradient>
	<rect x="-230.3" class="st1" width="880.6" height="420"/>
</g>
<g id="Cyan">
	<path class="st2" d="M308.3,308.3l81-81c9.5-9.5,9.5-25,0-34.5l-81-81l-12.1,12.1c-2.5,2.5-6.8,1.6-8-1.8c-1.2-3.4-3.2-6.5-5.8-9.2
		c-10-10.3-26.4-10.4-36.6-0.3c-10.2,10.1-10.2,26.5-0.1,36.6c2.8,2.8,6,4.8,9.4,6c3.4,1.2,4.3,5.5,1.8,8l-9.1,9.1"/>
	<path class="st2" d="M308.3,111.7l-81-81c-9.5-9.5-25-9.5-34.5,0l-81,81l12.1,12.1c2.5,2.5,1.6,6.8-1.8,8c-3.4,1.2-6.5,3.2-9.2,5.8
		c-10.3,10-10.4,26.4-0.3,36.6c10.1,10.2,26.5,10.2,36.6,0.1c2.8-2.8,4.8-6,6-9.4c1.2-3.4,5.5-4.3,8-1.8l9.2,9.2"/>
	<path class="st2" d="M111.7,111.7l-81,81c-9.5,9.5-9.5,25,0,34.5l81,81l12.1-12.1c2.5-2.5,6.8-1.6,8,1.8c1.2,3.4,3.2,6.5,5.8,9.2
		c10,10.3,26.4,10.4,36.6,0.3c10.2-10.1,10.2-26.5,0.1-36.6c-2.8-2.8-6-4.8-9.4-6c-3.4-1.2-4.3-5.5-1.8-8l9.2-9.2"/>
	<path class="st2" d="M163.2,256.8c-2.5,2.5-1.6,6.8,1.8,8c3.4,1.2,6.5,3.2,9.2,5.8c10.3,10,10.4,26.4,0.3,36.6
		c-10.1,10.2-26.5,10.2-36.6,0.1c-2.8-2.8-4.8-6-6-9.4c-1.2-3.4-5.5-4.3-8-1.8l-12.1,12.1"/>
	<path class="st2" d="M111.7,308.3l81,81c9.5,9.5,25,9.5,34.5,0l81-81l-12.1-12.1c-2.5-2.5-1.6-6.8,1.8-8c3.4-1.2,6.5-3.2,9.2-5.8
		c10.3-10,10.4-26.4,0.3-36.6c-10.1-10.2-26.5-10.2-36.6-0.1c-2.8,2.8-4.8,6-6,9.4c-1.2,3.4-5.5,4.3-8,1.8l-9.1-9.1"/>
	<circle class="st2" cx="210" cy="210" r="53.3"/>
	
		<linearGradient id="SVGID_2_" gradientUnits="userSpaceOnUse" x1="-1422.5791" y1="2479.2539" x2="-1395.2944" y2="2479.2539" gradientTransform="matrix(0.7071 0.7071 -0.7071 0.7071 2968.2935 -555.7065)">
		<stop  offset="1.685078e-03" style="stop-color:#00DA9D"/>
		<stop  offset="1" style="stop-color:#55DF60"/>
	</linearGradient>
	<path class="st3" d="M235,185L235,185c-5.3-5.3-14-5.3-19.2,0l0,0l0,0l-9.9,9.9c3.4-0.3,6.9,0.4,10,1.9l6.2-6.2l0,0
		c1-1,2.3-1.6,3.7-1.6c1.4,0,2.6,0.5,3.7,1.6l0,0c0.8,0.8,1.3,1.8,1.5,2.8c0,0.3,0.1,0.5,0.1,0.8c0,0,0,0,0,0.1
		c0,1.4-0.5,2.6-1.6,3.7l-13.6,13.6c-1.3,1.3-3.7,1-5.4,0.6c-1-0.2-1.7-0.7-2.6-1.2c-1.8-1.2-4.5-0.6-5.6,1.7
		c-0.8,1.5-0.4,3.3,0.8,4.6l0,0c5.3,5.3,14,5.3,19.2,0l2.9-2.9l9.9-9.9l0,0C240.3,199,240.3,190.3,235,185z"/>
	
		<linearGradient id="SVGID_3_" gradientUnits="userSpaceOnUse" x1="-1422.5791" y1="2504.4827" x2="-1395.2944" y2="2504.4827" gradientTransform="matrix(0.7071 0.7071 -0.7071 0.7071 2968.2935 -555.7065)">
		<stop  offset="1.685078e-03" style="stop-color:#00DA9D"/>
		<stop  offset="1" style="stop-color:#55DF60"/>
	</linearGradient>
	<path class="st4" d="M185,235L185,235c5.3,5.3,14,5.3,19.2,0l0,0l0,0l9.9-9.9c-3.4,0.3-6.9-0.4-10-1.9l-6.2,6.2l0,0
		c-1,1-2.3,1.6-3.7,1.6c-1.4,0-2.6-0.5-3.7-1.6l0,0c-0.8-0.8-1.3-1.8-1.5-2.8c0-0.3-0.1-0.5-0.1-0.8c0,0,0,0,0-0.1
		c0-1.4,0.5-2.6,1.6-3.7l13.6-13.6c1.3-1.3,3.7-1,5.4-0.6c1,0.2,1.7,0.7,2.6,1.2c1.8,1.2,4.5,0.6,5.6-1.7c0.8-1.5,0.4-3.3-0.8-4.6
		l0,0c-5.3-5.3-14-5.3-19.2,0l-2.9,2.9l-9.9,10l0,0C179.8,221,179.8,229.7,185,235z"/>
	<g>
		<rect x="304.1" y="192.6" class="st5" width="34.8" height="34.8"/>
		<path class="st5" d="M98.5,227.4L98.5,227.4c-9.6,0-17.4-7.8-17.4-17.4v0c0-9.6,7.8-17.4,17.4-17.4h0c9.6,0,17.4,7.8,17.4,17.4v0
			C115.9,219.6,108.1,227.4,98.5,227.4z"/>
	</g>
	<g>
		<polygon class="st5" points="210,120.6 189.9,120.6 200,103.2 210,85.8 220,103.2 230.1,120.6 		"/>
		<polygon class="st5" points="219.5,301.2 200.5,301.2 191,317.7 200.5,334.2 219.5,334.2 229,317.7 		"/>
	</g>
</g>
<g id="Green">
</g>
<g id="Icons">
</g>
<g id="White">
</g>
<g id="Layer_5">
</g>
</svg>
