<svg xmlns="http://www.w3.org/2000/svg" xmlns:xlink="http://www.w3.org/1999/xlink" viewBox="0 0 307.3 125.13"><defs><style>.cls-1{fill:url(#未命名的渐变_7);}.cls-2{fill:#3573ef;}.cls-3{fill:#427afe;}.cls-4{fill:#34393f;}</style><linearGradient id="未命名的渐变_7" y1="19.72" x2="108.4" y2="19.72" gradientUnits="userSpaceOnUse"><stop offset="0" stop-color="#3573ef"/><stop offset="1" stop-color="#427afe"/></linearGradient></defs><title>资源 9</title><g id="图层_2" data-name="图层 2"><g id="图层_1-2" data-name="图层 1"><polygon class="cls-1" points="0 31.41 13.91 39.45 13.91 39.32 54.19 16.07 94.48 39.33 94.48 39.44 108.4 31.41 108.4 31.29 94.48 23.26 54.19 0 40.28 8.03 0 31.29 0 31.29 0 31.41"/><polygon class="cls-2" points="13.91 44.39 0 36.36 0 47.35 0 77.78 0 93.85 13.91 101.88 35.87 114.56 35.87 98.49 13.91 85.81 13.91 44.39"/><polygon class="cls-3" points="94.48 44.38 94.48 85.79 72.52 98.48 72.52 114.54 94.48 101.86 94.48 101.88 108.4 93.85 108.4 93.83 108.4 77.76 108.4 47.36 108.4 36.35 94.48 44.38"/><polygon class="cls-3" points="54.19 62.7 68.11 54.67 54.19 46.63 40.28 54.67 54.19 62.7"/><polygon class="cls-2" points="54.19 67.65 49.91 65.17 40.15 59.54 40.15 100.97 40.15 110.56 40.15 117.03 40.27 117.09 54.18 125.13 54.19 67.65"/><polygon class="cls-3" points="54.19 67.65 54.18 125.13 68.23 117.01 68.23 110.56 68.23 100.95 68.23 59.54 54.19 67.65"/><path class="cls-4" d="M192.93,66.09c0,15.84-8.94,23.8-22.81,23.8s-22.59-8-22.59-23.35V36h9.32V66.16c0,9.86,5.08,15.16,13.42,15.16s13.34-5,13.34-14.78V36h9.32Z"/><path class="cls-4" d="M223,58.28C234.17,61,240,65,240,73.89c0,10-7.81,15.92-18.95,15.92a32.64,32.64,0,0,1-22.13-8.49l5.61-6.67c5.08,4.4,10.15,6.9,16.75,6.9,5.76,0,9.4-2.65,9.4-6.75,0-3.86-2.13-5.91-12-8.18-11.29-2.73-17.66-6.06-17.66-15.92,0-9.24,7.58-15.46,18.11-15.46a29.43,29.43,0,0,1,19.26,6.67l-5,7.05c-4.77-3.56-9.55-5.46-14.4-5.46-5.45,0-8.64,2.81-8.64,6.37C210.37,54,212.8,55.86,223,58.28Z"/><path class="cls-4" d="M307.3,36V89.05H298V36Z"/><path class="cls-4" d="M263.79,36H246V89.05h9.32V44.49h8.46c11.14,0,18.41,7.65,18.41,18.11s-7.27,18-18.41,18h-1.14v8.49h1.14c16.67,0,28.19-11.59,28.19-26.6S280.46,36,263.79,36Z"/></g></g></svg>